<?plantuml 1.2026.2?><svg xmlns="http://www.w3.org/2000/svg" xmlns:xlink="http://www.w3.org/1999/xlink" contentStyleType="text/css" data-diagram-type="DESCRIPTION" height="694px" preserveAspectRatio="none" style="width:605px;height:694px;background:#FFFFFF;" version="1.1" viewBox="0 0 605 694" width="605px" zoomAndPan="magnify"><title>El mismo despliegue con flechas &#171;deploy&#187; (artefactos fuera de los nodos)</title><defs/><g><g class="title" data-source-line="1"><text fill="#000000" font-family="sans-serif" font-size="14" font-weight="bold" lengthAdjust="spacing" textLength="509.4581" x="40.8347" y="24.9659">El mismo despliegue con flechas &#171;deploy&#187; (artefactos fuera de los nodos)</text></g><!--entity laptop--><g class="entity" data-qualified-name="laptop" data-source-line="3" id="ent0002"><polygon fill="#F1F1F1" points="409.5,178.0679,419.5,168.0679,588.1275,168.0679,588.1275,226.2038,578.1275,236.2038,409.5,236.2038,409.5,178.0679" style="stroke:#181818;stroke-width:0.5;"/><line style="stroke:#181818;stroke-width:0.5;" x1="578.1275" x2="588.1275" y1="178.0679" y2="168.0679"/><line style="stroke:#181818;stroke-width:0.5;" x1="409.5" x2="578.1275" y1="178.0679" y2="178.0679"/><line style="stroke:#181818;stroke-width:0.5;" x1="578.1275" x2="578.1275" y1="178.0679" y2="236.2038"/><text fill="#000000" font-family="sans-serif" font-size="14" font-style="italic" lengthAdjust="spacing" textLength="51.9258" x="467.8508" y="203.0339">&#171;device&#187;</text><text fill="#000000" font-family="sans-serif" font-size="14" lengthAdjust="spacing" textLength="138.6275" x="424.5" y="222.1018">port&#225;til de desarrollo</text></g><!--entity py--><g class="entity" data-qualified-name="py" data-source-line="4" id="ent0003"><polygon fill="#F1F1F1" points="252,325.0679,262,315.0679,445.7875,315.0679,445.7875,373.2038,435.7875,383.2038,252,383.2038,252,325.0679" style="stroke:#181818;stroke-width:0.5;"/><line style="stroke:#181818;stroke-width:0.5;" x1="435.7875" x2="445.7875" y1="325.0679" y2="315.0679"/><line style="stroke:#181818;stroke-width:0.5;" x1="252" x2="435.7875" y1="325.0679" y2="325.0679"/><line style="stroke:#181818;stroke-width:0.5;" x1="435.7875" x2="435.7875" y1="325.0679" y2="383.2038"/><text fill="#000000" font-family="sans-serif" font-size="14" font-style="italic" lengthAdjust="spacing" textLength="151.7875" x="268" y="350.0339">&#171;executionEnvironment&#187;</text><text fill="#000000" font-family="sans-serif" font-size="14" lengthAdjust="spacing" textLength="77.8537" x="304.9669" y="369.1018">Python 3.13</text></g><!--entity nav--><g class="entity" data-qualified-name="nav" data-source-line="5" id="ent0004"><polygon fill="#F1F1F1" points="252,472.0679,262,462.0679,445.7875,462.0679,445.7875,520.2038,435.7875,530.2038,252,530.2038,252,472.0679" style="stroke:#181818;stroke-width:0.5;"/><line style="stroke:#181818;stroke-width:0.5;" x1="435.7875" x2="445.7875" y1="472.0679" y2="462.0679"/><line style="stroke:#181818;stroke-width:0.5;" x1="252" x2="435.7875" y1="472.0679" y2="472.0679"/><line style="stroke:#181818;stroke-width:0.5;" x1="435.7875" x2="435.7875" y1="472.0679" y2="530.2038"/><text fill="#000000" font-family="sans-serif" font-size="14" font-style="italic" lengthAdjust="spacing" textLength="151.7875" x="268" y="497.0339">&#171;executionEnvironment&#187;</text><text fill="#000000" font-family="sans-serif" font-size="14" lengthAdjust="spacing" textLength="70.8397" x="308.4739" y="516.1018">navegador</text></g><!--entity cdn--><g class="entity" data-qualified-name="cdn" data-source-line="6" id="ent0005"><polygon fill="#F1F1F1" points="100,619.0679,110,609.0679,220.1497,609.0679,220.1497,667.2038,210.1497,677.2038,100,677.2038,100,619.0679" style="stroke:#181818;stroke-width:0.5;"/><line style="stroke:#181818;stroke-width:0.5;" x1="210.1497" x2="220.1497" y1="619.0679" y2="609.0679"/><line style="stroke:#181818;stroke-width:0.5;" x1="100" x2="210.1497" y1="619.0679" y2="619.0679"/><line style="stroke:#181818;stroke-width:0.5;" x1="210.1497" x2="210.1497" y1="619.0679" y2="677.2038"/><text fill="#000000" font-family="sans-serif" font-size="14" font-style="italic" lengthAdjust="spacing" textLength="51.9258" x="129.1119" y="644.0339">&#171;device&#187;</text><text fill="#000000" font-family="sans-serif" font-size="14" lengthAdjust="spacing" textLength="80.1497" x="115" y="663.1018">CDN esm.sh</text></g><!--entity serve--><g class="entity" data-qualified-name="serve" data-source-line="7" id="ent0006"><rect fill="#F1F1F1" height="42.0679" rx="2.5" ry="2.5" style="stroke:#181818;stroke-width:0.5;" width="84.8938" x="289.5" y="181.0679"/><polygon fill="#F1F1F1" points="357.3938,186.0679,357.3938,200.0679,369.3938,200.0679,369.3938,192.0679,363.3938,186.0679,357.3938,186.0679" style="stroke:#181818;stroke-width:0.5;"/><line style="stroke:#181818;stroke-width:0.5;" x1="363.3938" x2="363.3938" y1="186.0679" y2="192.0679"/><line style="stroke:#181818;stroke-width:0.5;" x1="369.3938" x2="363.3938" y1="192.0679" y2="192.0679"/><text fill="#000000" font-family="sans-serif" font-size="14" lengthAdjust="spacing" textLength="54.8938" x="299.5" y="209.0339">serve.py</text></g><!--entity front--><g class="entity" data-qualified-name="front" data-source-line="8" id="ent0007"><rect fill="#F1F1F1" height="42.0679" rx="2.5" ry="2.5" style="stroke:#181818;stroke-width:0.5;" width="190.3554" x="27" y="328.0679"/><polygon fill="#F1F1F1" points="200.3554,333.0679,200.3554,347.0679,212.3554,347.0679,212.3554,339.0679,206.3554,333.0679,200.3554,333.0679" style="stroke:#181818;stroke-width:0.5;"/><line style="stroke:#181818;stroke-width:0.5;" x1="206.3554" x2="206.3554" y1="333.0679" y2="339.0679"/><line style="stroke:#181818;stroke-width:0.5;" x1="212.3554" x2="206.3554" y1="339.0679" y2="339.0679"/><text fill="#000000" font-family="sans-serif" font-size="14" lengthAdjust="spacing" textLength="160.3554" x="37" y="356.0339">frontends/mindmap/*.js</text></g><!--entity store--><g class="entity" data-qualified-name="store" data-source-line="9" id="ent0008"><rect fill="#F1F1F1" height="42.0679" rx="2.5" ry="2.5" style="stroke:#181818;stroke-width:0.5;" width="187.3174" x="405.5" y="47.0679"/><polygon fill="#F1F1F1" points="575.8174,52.0679,575.8174,66.0679,587.8174,66.0679,587.8174,58.0679,581.8174,52.0679,575.8174,52.0679" style="stroke:#181818;stroke-width:0.5;"/><line style="stroke:#181818;stroke-width:0.5;" x1="581.8174" x2="581.8174" y1="52.0679" y2="58.0679"/><line style="stroke:#181818;stroke-width:0.5;" x1="587.8174" x2="581.8174" y1="58.0679" y2="58.0679"/><text fill="#000000" font-family="sans-serif" font-size="14" lengthAdjust="spacing" textLength="157.3174" x="415.5" y="75.0339">.sldb/ (store del mundo)</text></g><!--entity libs--><g class="entity" data-qualified-name="libs" data-source-line="10" id="ent0009"><rect fill="#F1F1F1" height="42.0679" rx="2.5" ry="2.5" style="stroke:#181818;stroke-width:0.5;" width="210.3893" x="7" y="475.0679"/><polygon fill="#F1F1F1" points="200.3893,480.0679,200.3893,494.0679,212.3893,494.0679,212.3893,486.0679,206.3893,480.0679,200.3893,480.0679" style="stroke:#181818;stroke-width:0.5;"/><line style="stroke:#181818;stroke-width:0.5;" x1="206.3893" x2="206.3893" y1="480.0679" y2="486.0679"/><line style="stroke:#181818;stroke-width:0.5;" x1="212.3893" x2="206.3893" y1="486.0679" y2="486.0679"/><text fill="#000000" font-family="sans-serif" font-size="14" lengthAdjust="spacing" textLength="180.3893" x="17" y="503.0339">react, @xyflow/react, dagre</text></g><!--reverse link laptop to py--><g class="link" data-entity-1="ent0002" data-entity-2="ent0003" data-link-type="nested" data-source-line="12" id="lnk10"><path d="M453.0845,247.4566 C428.6945,271.0266 407.61,291.4179 383.25,314.9579" fill="none" id="laptop-backto-py" style="stroke:#181818;stroke-width:1;"/><ellipse cx="458.8373" cy="241.8972" fill="#FFFFFF" rx="8" ry="8" style="stroke:#181818;stroke-width:1;"/><line style="stroke:#181818;stroke-width:1;" x1="453.0845" x2="464.59" y1="247.4566" y2="236.3379"/><line style="stroke:#181818;stroke-width:1;" x1="453.2779" x2="464.3966" y1="236.1445" y2="247.65"/></g><!--reverse link laptop to nav--><g class="link" data-entity-1="ent0002" data-entity-2="ent0004" data-link-type="nested" data-source-line="13" id="lnk11"><path d="M507.5067,252.2208 C514.4767,300.0608 517.75,373.0879 477,432.0679 C468.69,444.0879 457.42,453.9179 444.98,461.9279" fill="none" id="laptop-backto-nav" style="stroke:#181818;stroke-width:1;"/><ellipse cx="506.3534" cy="244.3043" fill="#FFFFFF" rx="8" ry="8" style="stroke:#181818;stroke-width:1;"/><line style="stroke:#181818;stroke-width:1;" x1="507.5067" x2="505.2" y1="252.2208" y2="236.3879"/><line style="stroke:#181818;stroke-width:1;" x1="498.437" x2="514.2698" y1="245.4577" y2="243.151"/></g><!--link serve to py--><g class="link" data-entity-1="ent0006" data-entity-2="ent0003" data-link-type="dependency" data-source-line="14" id="lnk12"><path d="M334.36,223.2279 C337.15,246.9679 341.1123,280.7586 344.4223,309.0286" fill="none" id="serve-to-py" style="stroke:#181818;stroke-width:1;stroke-dasharray:7,7;"/><polygon fill="#181818" points="345.12,314.9879,348.0462,305.5838,344.5385,310.0218,340.1005,306.5141,345.12,314.9879" style="stroke:#181818;stroke-width:1;"/><text fill="#000000" font-family="sans-serif" font-size="13" lengthAdjust="spacing" textLength="54.405" x="342" y="280.9649">&#171;deploy&#187;</text></g><!--link front to nav--><g class="link" data-entity-1="ent0007" data-entity-2="ent0004" data-link-type="dependency" data-source-line="15" id="lnk13"><path d="M153.56,370.2279 C190.72,393.9679 247.9034,430.4882 292.1634,458.7582" fill="none" id="front-to-nav" style="stroke:#181818;stroke-width:1;stroke-dasharray:7,7;"/><polygon fill="#181818" points="297.22,461.9879,291.7883,453.7723,293.0062,459.2965,287.482,460.5143,297.22,461.9879" style="stroke:#181818;stroke-width:1;"/><text fill="#000000" font-family="sans-serif" font-size="13" lengthAdjust="spacing" textLength="54.405" x="251" y="427.9649">&#171;deploy&#187;</text></g><!--link store to laptop--><g class="link" data-entity-1="ent0008" data-entity-2="ent0002" data-link-type="dependency" data-source-line="16" id="lnk14"><path d="M499,89.1179 C499,110.0279 499,137.1679 499,161.9779" fill="none" id="store-to-laptop" style="stroke:#181818;stroke-width:1;stroke-dasharray:7,7;"/><polygon fill="#181818" points="499,167.9779,503,158.9779,499,162.9779,495,158.9779,499,167.9779" style="stroke:#181818;stroke-width:1;"/><text fill="#000000" font-family="sans-serif" font-size="13" lengthAdjust="spacing" textLength="54.405" x="500" y="133.9649">&#171;deploy&#187;</text></g><!--link libs to cdn--><g class="link" data-entity-1="ent0009" data-entity-2="ent0005" data-link-type="dependency" data-source-line="17" id="lnk15"><path d="M118.67,517.2279 C126.53,540.9679 137.8041,575.022 147.1641,603.292" fill="none" id="libs-to-cdn" style="stroke:#181818;stroke-width:1;stroke-dasharray:7,7;"/><polygon fill="#181818" points="149.05,608.9879,150.0185,599.1868,147.4784,604.2413,142.4239,601.7013,149.05,608.9879" style="stroke:#181818;stroke-width:1;"/><text fill="#000000" font-family="sans-serif" font-size="13" lengthAdjust="spacing" textLength="54.405" x="140" y="574.9649">&#171;deploy&#187;</text></g><!--link py to nav--><g class="link" data-entity-1="ent0003" data-entity-2="ent0004" data-link-type="association" data-source-line="18" id="lnk16"><path d="M348.38,383.0879 C348.22,392.7479 348.08,403.3279 348,413.0679 C347.87,429.1579 348.05,447.0179 348.29,461.9579" fill="none" id="py-nav" style="stroke:#181818;stroke-width:1;"/><text fill="#000000" font-family="sans-serif" font-size="13" lengthAdjust="spacing" textLength="123.4871" x="349" y="427.9649">HTTP localhost:8088</text></g><!--link nav to cdn--><g class="link" data-entity-1="ent0004" data-entity-2="ent0005" data-link-type="association" data-source-line="19" id="lnk17"><path d="M305.64,530.3379 C274.91,553.9079 233.85,585.4179 203.16,608.9579" fill="none" id="nav-cdn" style="stroke:#181818;stroke-width:1;"/><text fill="#000000" font-family="sans-serif" font-size="13" lengthAdjust="spacing" textLength="39.091" x="267" y="574.9649">HTTPS</text></g><?plantuml-src VP9DJiCm48NtESMegnPe0kgcgge82IgnGfNe1TnuqXWvdiXsGdCSrXo1NRaOOoUBb0KhQ_ozDt-sLruZx3JKojK44bsZ5PvQX88Cb1gBIZYuV4biDFMNRvWBwx4KXIS7POjMi0Sq1uOakKMIy8amQyZwdq-lTC2SLLXBMjCCjbk9dIempu4JQz5uQaRFllSL5rsb3wkWmpCMhLTaTgPJbaoDnW-kfXyTHdHu4fBi_tgMZOQdvrT0LwUk-jj98Kt2ewam6imSsWxJffy558C9B3cvHoDTLYiZQz5aD-cxYzA89jBKQNdCOEuysR07tdDh92s6lE5o8hR8nnqydljIqqSsXbASB4QzLaUN9CFAu7Qv37kOH67As2gaQSuCDd74y6vvdiJE8c7TDHgQ2sZCTaL3rGXvGzU4Imnb-VhbSDZpDoY4hiZvpVf-lKu2OS7W2uAtNm00?></g></svg>