<?plantuml 1.2026.2?><svg xmlns="http://www.w3.org/2000/svg" xmlns:xlink="http://www.w3.org/1999/xlink" contentStyleType="text/css" data-diagram-type="STATE" height="469px" preserveAspectRatio="none" style="width:383px;height:469px;background:#FFFFFF;" version="1.1" viewBox="0 0 383 469" width="383px" zoomAndPan="magnify"><title>Ciclo de vida de una reserva (desde el mundo pron)</title><defs/><g><g class="title" data-source-line="1"><text fill="#000000" font-family="sans-serif" font-size="14" font-weight="bold" lengthAdjust="spacing" textLength="355.4167" x="10" y="24.9659">Ciclo de vida de una reserva (desde el mundo pron)</text></g><!--cluster active--><g class="cluster" data-qualified-name="active" data-source-line="3" id="ent0002"><path d="M72.9618,47.0679 L265.9618,47.0679 A12.5,12.5 0 0 1 278.4618,59.5679 L278.4618,71.1358 L60.4618,71.1358 L60.4618,59.5679 A12.5,12.5 0 0 1 72.9618,47.0679" fill="#F1F1F1"/><rect fill="none" height="228" rx="12.5" ry="12.5" style="stroke:#181818;stroke-width:0.5;" width="218" x="60.4618" y="47.0679"/><line style="stroke:#181818;stroke-width:0.5;" x1="60.4618" x2="278.4618" y1="71.1358" y2="71.1358"/><text fill="#000000" font-family="sans-serif" font-size="14" lengthAdjust="spacing" textLength="38.2478" x="150.3379" y="66.0339">active</text></g><rect fill="#F1F1F1" height="40" rx="12.5" ry="12.5" style="stroke:#181818;stroke-width:0.5;" width="64.6418" x="137.9618" y="85.0679"/><text fill="#000000" font-family="sans-serif" font-size="14" lengthAdjust="spacing" textLength="54.6418" x="142.9618" y="110.4999">pending</text><g class="entity" data-qualified-name="active.confirmed" id="ent0004"><rect fill="#F1F1F1" height="55.412" rx="12.5" ry="12.5" style="stroke:#181818;stroke-width:0.5;" width="146.9609" x="76.9618" y="204.0679"/><line style="stroke:#181818;stroke-width:0.5;" x1="76.9618" x2="223.9227" y1="233.1358" y2="233.1358"/><text fill="#000000" font-family="sans-serif" font-size="14" lengthAdjust="spacing" textLength="67.6477" x="116.6184" y="224.0339">confirmed</text><text fill="#000000" font-family="sans-serif" font-size="12" lengthAdjust="spacing" textLength="126.9609" x="81.9618" y="250.9639">entry / avisar al cliente</text></g><rect fill="#F1F1F1" height="40" rx="12.5" ry="12.5" style="stroke:#181818;stroke-width:0.5;" width="54.0158" x="123.4618" y="340.0679"/><text fill="#000000" font-family="sans-serif" font-size="14" lengthAdjust="spacing" textLength="44.0158" x="128.4618" y="365.4999">seated</text><rect fill="#F1F1F1" height="40" rx="12.5" ry="12.5" style="stroke:#181818;stroke-width:0.5;" width="71.5717" x="212.4618" y="340.0679"/><text fill="#000000" font-family="sans-serif" font-size="14" lengthAdjust="spacing" textLength="61.5717" x="217.4618" y="365.4999">cancelled</text><g class="end_entity" data-qualified-name=".end." data-source-line="13" id="ent0006"><ellipse cx="198.4618" cy="452.0679" fill="none" rx="11" ry="11" style="stroke:#222222;stroke-width:1;"/><ellipse cx="198.4618" cy="452.0679" fill="#222222" rx="6" ry="6" style="stroke:#222222;stroke-width:1;"/></g><!--link pending to confirmed--><g class="link" data-entity-1="ent0003" data-entity-2="ent0004" data-link-type="dependency" data-source-line="9" id="lnk2"><path d="M141.5618,125.2179 C132.0418,133.1979 122.5818,143.3579 117.4618,155.0679 C110.3518,171.3179 114.5428,184.5461 124.1928,199.0161" fill="none" id="pending-to-confirmed" style="stroke:#181818;stroke-width:1;"/><polygon fill="#181818" points="127.5218,204.0079,125.8562,194.3009,124.7477,199.8481,119.2005,198.7396,127.5218,204.0079" style="stroke:#181818;stroke-width:1;"/><text fill="#000000" font-family="sans-serif" font-size="13" lengthAdjust="spacing" textLength="149.2661" x="118.4618" y="169.9649">confirm [party_size &lt;= 8]</text></g><!--link confirmed to seated--><g class="link" data-entity-1="ent0004" data-entity-2="ent0005" data-link-type="dependency" data-source-line="10" id="lnk3"><path d="M150.4618,259.0879 C150.4618,283.2879 150.4618,312.4579 150.4618,333.9879" fill="none" id="confirmed-to-seated" style="stroke:#181818;stroke-width:1;"/><polygon fill="#181818" points="150.4618,339.9879,154.4618,330.9879,150.4618,334.9879,146.4618,330.9879,150.4618,339.9879" style="stroke:#181818;stroke-width:1;"/><text fill="#000000" font-family="sans-serif" font-size="13" lengthAdjust="spacing" textLength="25.545" x="151.4618" y="305.9649">seat</text></g><!--link pending to cancelled--><g class="link" data-entity-1="ent0003" data-entity-2="ent0006" data-link-type="dependency" data-source-line="11" id="lnk4"><path d="M203.3018,112.2479 C227.0118,118.6079 257.4018,131.1179 272.4618,155.0679 C309.4918,213.9279 278.726,296.054 260.756,334.434" fill="none" id="pending-to-cancelled" style="stroke:#181818;stroke-width:1;"/><polygon fill="#181818" points="258.2118,339.8679,265.6507,333.4132,260.332,335.3397,258.4056,330.021,258.2118,339.8679" style="stroke:#181818;stroke-width:1;"/><text fill="#000000" font-family="sans-serif" font-size="13" lengthAdjust="spacing" textLength="38.493" x="289.4618" y="236.9649">cancel</text></g><!--link confirmed to cancelled--><g class="link" data-entity-1="ent0004" data-entity-2="ent0006" data-link-type="dependency" data-source-line="12" id="lnk5"><path d="M171.0018,259.0879 C189.7518,283.2879 213.3272,313.7148 230.0072,335.2448" fill="none" id="confirmed-to-cancelled" style="stroke:#181818;stroke-width:1;"/><polygon fill="#181818" points="233.6818,339.9879,231.3319,330.4235,230.6196,336.0353,225.0078,335.323,233.6818,339.9879" style="stroke:#181818;stroke-width:1;"/><text fill="#000000" font-family="sans-serif" font-size="13" lengthAdjust="spacing" textLength="38.493" x="208.4618" y="305.9649">cancel</text></g><!--link seated to *end*--><g class="link" data-entity-1="ent0005" data-entity-2="ent0006" data-link-type="dependency" data-source-line="13" id="lnk7"><path d="M160.6418,380.1579 C170.7718,399.1479 183.0472,422.1744 190.7472,436.6044" fill="none" id="seated-to-*end*" style="stroke:#181818;stroke-width:1;"/><polygon fill="#181818" points="193.5718,441.8979,192.8638,432.0745,191.2179,437.4867,185.8058,435.8408,193.5718,441.8979" style="stroke:#181818;stroke-width:1;"/></g><!--link cancelled to *end*--><g class="link" data-entity-1="ent0006" data-entity-2="ent0006" data-link-type="dependency" data-source-line="14" id="lnk8"><path d="M237.8618,380.1579 C227.3118,399.1479 214.4866,422.2235 206.4666,436.6535" fill="none" id="cancelled-to-*end*" style="stroke:#181818;stroke-width:1;"/><polygon fill="#181818" points="203.5518,441.8979,211.4203,435.9745,205.9808,437.5276,204.4277,432.0881,203.5518,441.8979" style="stroke:#181818;stroke-width:1;"/></g><?plantuml-src ROt1IeCn48JlUOevQg5uBMAzz35AAKkoseNycv1iV_Whlhk9ZKgBb-pEPEPR4ukCdVYO41Yp1Ehph8J2bSjCU0XScyKHqrb3GYv97zr9kZTbMrg--YBP9AchHiOWRp8pFXnmDJ9h47rlsYTzap9nm3DOhInu0irIgO0YV9HciliSeChj3KDuKiynDZrmMAzVRu1ZnpvJiULOvS9usM9pS7-fthbYMw4ljxIV6vtslTzL_maCMl_ThzgftyHmlW00?></g></svg>