<svg xmlns="http://www.w3.org/2000/svg" xmlns:xlink="http://www.w3.org/1999/xlink" version="1.1" class="marks" width="1510" height="408" viewBox="0 0 1510 408"><g fill="none" stroke-miterlimit="4" transform="translate(5,5)"><g class="mark-group role-frame root" role="graphics-object" aria-roledescription="group mark container"><g transform="translate(0,0)"><path class="background" aria-hidden="true" d="M0,0h1500v396h-1500Z"/><g><g class="mark-text role-mark" role="graphics-object" aria-roledescription="text mark container"><text text-anchor="middle" transform="translate(850,15)" font-family="sans-serif" font-size="15px" font-weight="bold" fill="#475569">depende de</text></g><g class="mark-text role-mark" role="graphics-object" aria-roledescription="text mark container"><text text-anchor="middle" transform="translate(290,40)" font-family="sans-serif" font-size="13px" font-weight="bold" fill="#475569">shared</text><text text-anchor="middle" transform="translate(430,40)" font-family="sans-serif" font-size="13px" font-weight="bold" fill="#475569">source</text><text text-anchor="middle" transform="translate(570,40)" font-family="sans-serif" font-size="13px" font-weight="bold" fill="#475569">views/draft/tree</text><text text-anchor="middle" transform="translate(710,40)" font-family="sans-serif" font-size="13px" font-weight="bold" fill="#475569">dialogs</text><text text-anchor="middle" transform="translate(850,40)" font-family="sans-serif" font-size="13px" font-weight="bold" fill="#475569">shell</text><text text-anchor="middle" transform="translate(990,40)" font-family="sans-serif" font-size="13px" font-weight="bold" fill="#475569">views/documents/flow</text><text text-anchor="middle" transform="translate(1130,40)" font-family="sans-serif" font-size="13px" font-weight="bold" fill="#475569">views/documents/map</text><text text-anchor="middle" transform="translate(1270,40)" font-family="sans-serif" font-size="13px" font-weight="bold" fill="#475569">views/models/diagram</text><text text-anchor="middle" transform="translate(1410,40)" font-family="sans-serif" font-size="13px" font-weight="bold" fill="#475569">app</text></g><g class="mark-rule role-mark" role="graphics-symbol" aria-roledescription="rule mark container"><line transform="translate(220,50)" x2="0" y2="336" stroke="#CBD5E1" stroke-dasharray="4,4"/><line transform="translate(360,50)" x2="0" y2="336" stroke="#CBD5E1" stroke-dasharray="4,4"/><line transform="translate(500,50)" x2="0" y2="336" stroke="#CBD5E1" stroke-dasharray="4,4"/><line transform="translate(640,50)" x2="0" y2="336" stroke="#CBD5E1" stroke-dasharray="4,4"/><line transform="translate(780,50)" x2="0" y2="336" stroke="#CBD5E1" stroke-dasharray="4,4"/><line transform="translate(920,50)" x2="0" y2="336" stroke="#CBD5E1" stroke-dasharray="4,4"/><line transform="translate(1060,50)" x2="0" y2="336" stroke="#CBD5E1" stroke-dasharray="4,4"/><line transform="translate(1200,50)" x2="0" y2="336" stroke="#CBD5E1" stroke-dasharray="4,4"/><line transform="translate(1340,50)" x2="0" y2="336" stroke="#CBD5E1" stroke-dasharray="4,4"/><line transform="translate(1480,50)" x2="0" y2="336" stroke="#CBD5E1" stroke-dasharray="4,4"/></g><g class="mark-rule role-mark" role="graphics-symbol" aria-roledescription="rule mark container"><line transform="translate(220,30)" x2="0" y2="366" stroke="#475569" stroke-opacity="0.6" stroke-width="2.5"/><line transform="translate(1480,30)" x2="0" y2="366" stroke="#475569" stroke-opacity="0.6" stroke-width="2.5"/></g><g class="mark-rect role-mark" role="graphics-symbol" aria-roledescription="rect mark container"><path d="M0,70h1500v34h-1500Z" fill="#475569" fill-opacity="0.15"/><path d="M0,104h1500v34h-1500Z" fill="#94A3B8" fill-opacity="0.15"/><path d="M0,138h1500v34h-1500Z" fill="#475569" fill-opacity="0.15"/><path d="M0,172h1500v34h-1500Z" fill="#94A3B8" fill-opacity="0.15"/><path d="M0,206h1500v34h-1500Z" fill="#475569" fill-opacity="0.15"/><path d="M0,240h1500v34h-1500Z" fill="#94A3B8" fill-opacity="0.15"/><path d="M0,274h1500v34h-1500Z" fill="#475569" fill-opacity="0.15"/><path d="M0,308h1500v34h-1500Z" fill="#94A3B8" fill-opacity="0.15"/><path d="M0,342h1500v34h-1500Z" fill="#475569" fill-opacity="0.15"/></g><g class="mark-rule role-mark" role="graphics-symbol" aria-roledescription="rule mark container"><line transform="translate(12,72)" x2="0" y2="30" stroke="#475569" stroke-width="3"/><line transform="translate(12,106)" x2="0" y2="30" stroke="#475569" stroke-width="3"/><line transform="translate(12,140)" x2="0" y2="30" stroke="#475569" stroke-width="3"/><line transform="translate(12,174)" x2="0" y2="30" stroke="#475569" stroke-width="3"/><line transform="translate(12,208)" x2="0" y2="30" stroke="#475569" stroke-width="3"/><line transform="translate(12,242)" x2="0" y2="30" stroke="#475569" stroke-width="3"/><line transform="translate(12,276)" x2="0" y2="30" stroke="#475569" stroke-width="3"/><line transform="translate(12,310)" x2="0" y2="30" stroke="#475569" stroke-width="3"/><line transform="translate(12,344)" x2="0" y2="30" stroke="#475569" stroke-width="3"/></g><g class="mark-text role-mark" role="graphics-object" aria-roledescription="text mark container"><text text-anchor="start" transform="translate(20,91)" font-family="sans-serif" font-size="13px" fill="#111827">shared</text><text text-anchor="start" transform="translate(20,125)" font-family="sans-serif" font-size="13px" fill="#111827">source</text><text text-anchor="start" transform="translate(20,159)" font-family="sans-serif" font-size="13px" fill="#111827">views/draft/tree</text><text text-anchor="start" transform="translate(20,193)" font-family="sans-serif" font-size="13px" fill="#111827">dialogs</text><text text-anchor="start" transform="translate(20,227)" font-family="sans-serif" font-size="13px" fill="#111827">shell</text><text text-anchor="start" transform="translate(20,261)" font-family="sans-serif" font-size="13px" fill="#111827">views/documents/flow</text><text text-anchor="start" transform="translate(20,295)" font-family="sans-serif" font-size="13px" fill="#111827">views/documents/map</text><text text-anchor="start" transform="translate(20,329)" font-family="sans-serif" font-size="13px" fill="#111827">views/models/diagram</text><text text-anchor="start" transform="translate(20,363)" font-family="sans-serif" font-size="13px" fill="#111827">app</text></g><g class="mark-rect role-mark" role="graphics-symbol" aria-roledescription="rect mark container"><path d="M231,110L349,110C352.863405171458,110,356,113.136594828542,356,117L356,125C356,128.863405171458,352.863405171458,132,349,132L231,132C227.136594828542,132,224,128.863405171458,224,125L224,117C224,113.136594828542,227.136594828542,110,231,110Z" fill="#F59E0B" fill-opacity="1" stroke="#F59E0B" stroke-opacity="0.7" stroke-width="1.5"/><path d="M231,144L489,144C492.863405171458,144,496,147.136594828542,496,151L496,159C496,162.863405171458,492.863405171458,166,489,166L231,166C227.136594828542,166,224,162.863405171458,224,159L224,151C224,147.136594828542,227.136594828542,144,231,144Z" fill="#F59E0B" fill-opacity="1" stroke="#F59E0B" stroke-opacity="0.7" stroke-width="1.5"/><path d="M231,178L349,178C352.863405171458,178,356,181.136594828542,356,185L356,193C356,196.863405171458,352.863405171458,200,349,200L231,200C227.136594828542,200,224,196.863405171458,224,193L224,185C224,181.136594828542,227.136594828542,178,231,178Z" fill="#F59E0B" fill-opacity="1" stroke="#F59E0B" stroke-opacity="0.7" stroke-width="1.5"/><path d="M791,178L909,178C912.863405171458,178,916,181.136594828542,916,185L916,193C916,196.863405171458,912.863405171458,200,909,200L791,200C787.136594828542,200,784,196.863405171458,784,193L784,185C784,181.136594828542,787.136594828542,178,791,178Z" fill="#F59E0B" fill-opacity="1" stroke="#F59E0B" stroke-opacity="0.7" stroke-width="1.5"/><path d="M231,212L769,212C772.863405171458,212,776,215.136594828542,776,219L776,227C776,230.863405171458,772.863405171458,234,769,234L231,234C227.136594828542,234,224,230.863405171458,224,227L224,219C224,215.136594828542,227.136594828542,212,231,212Z" fill="#F59E0B" fill-opacity="1" stroke="#F59E0B" stroke-opacity="0.7" stroke-width="1.5"/><path d="M931,212L1329,212C1332.863405171458,212,1336,215.136594828542,1336,219L1336,227C1336,230.863405171458,1332.863405171458,234,1329,234L931,234C927.136594828542,234,924,230.863405171458,924,227L924,219C924,215.136594828542,927.136594828542,212,931,212Z" fill="#F59E0B" fill-opacity="1" stroke="#F59E0B" stroke-opacity="0.7" stroke-width="1.5"/><path d="M231,246L489,246C492.863405171458,246,496,249.136594828542,496,253L496,261C496,264.863405171458,492.863405171458,268,489,268L231,268C227.136594828542,268,224,264.863405171458,224,261L224,253C224,249.136594828542,227.136594828542,246,231,246Z" fill="#F59E0B" fill-opacity="1" stroke="#F59E0B" stroke-opacity="0.7" stroke-width="1.5"/><path d="M791,246L909,246C912.863405171458,246,916,249.136594828542,916,253L916,261C916,264.863405171458,912.863405171458,268,909,268L791,268C787.136594828542,268,784,264.863405171458,784,261L784,253C784,249.136594828542,787.136594828542,246,791,246Z" fill="#F59E0B" fill-opacity="1" stroke="#F59E0B" stroke-opacity="0.7" stroke-width="1.5"/><path d="M231,280L489,280C492.863405171458,280,496,283.136594828542,496,287L496,295C496,298.863405171458,492.863405171458,302,489,302L231,302C227.136594828542,302,224,298.863405171458,224,295L224,287C224,283.136594828542,227.136594828542,280,231,280Z" fill="#F59E0B" fill-opacity="1" stroke="#F59E0B" stroke-opacity="0.7" stroke-width="1.5"/><path d="M791,280L909,280C912.863405171458,280,916,283.136594828542,916,287L916,295C916,298.863405171458,912.863405171458,302,909,302L791,302C787.136594828542,302,784,298.863405171458,784,295L784,287C784,283.136594828542,787.136594828542,280,791,280Z" fill="#F59E0B" fill-opacity="1" stroke="#F59E0B" stroke-opacity="0.7" stroke-width="1.5"/><path d="M231,314L489,314C492.863405171458,314,496,317.136594828542,496,321L496,329C496,332.863405171458,492.863405171458,336,489,336L231,336C227.136594828542,336,224,332.863405171458,224,329L224,321C224,317.136594828542,227.136594828542,314,231,314Z" fill="#F59E0B" fill-opacity="1" stroke="#F59E0B" stroke-opacity="0.7" stroke-width="1.5"/><path d="M791,314L909,314C912.863405171458,314,916,317.136594828542,916,321L916,329C916,332.863405171458,912.863405171458,336,909,336L791,336C787.136594828542,336,784,332.863405171458,784,329L784,321C784,317.136594828542,787.136594828542,314,791,314Z" fill="#F59E0B" fill-opacity="1" stroke="#F59E0B" stroke-opacity="0.7" stroke-width="1.5"/><path d="M231,348L489,348C492.863405171458,348,496,351.136594828542,496,355L496,363C496,366.863405171458,492.863405171458,370,489,370L231,370C227.136594828542,370,224,366.863405171458,224,363L224,355C224,351.136594828542,227.136594828542,348,231,348Z" fill="#F59E0B" fill-opacity="1" stroke="#F59E0B" stroke-opacity="0.7" stroke-width="1.5"/><path d="M791,348L909,348C912.863405171458,348,916,351.136594828542,916,355L916,363C916,366.863405171458,912.863405171458,370,909,370L791,370C787.136594828542,370,784,366.863405171458,784,363L784,355C784,351.136594828542,787.136594828542,348,791,348Z" fill="#F59E0B" fill-opacity="1" stroke="#F59E0B" stroke-opacity="0.7" stroke-width="1.5"/></g></g><path class="foreground" aria-hidden="true" d="" display="none"/></g></g></g></svg>