<?plantuml 1.2026.2?><svg xmlns="http://www.w3.org/2000/svg" xmlns:xlink="http://www.w3.org/1999/xlink" contentStyleType="text/css" data-diagram-type="CLASS" height="521px" preserveAspectRatio="none" style="width:500px;height:521px;background:#FFFFFF;" version="1.1" viewBox="0 0 500 521" width="500px" zoomAndPan="magnify"><defs/><g><!--class Person--><g class="entity" data-qualified-name="Person" data-source-line="2" id="ent0002"><rect fill="#F1F1F1" height="67.0679" rx="2.5" ry="2.5" style="stroke:#181818;stroke-width:0.5;" width="82.4337" x="315" y="447"/><ellipse cx="333.5558" cy="463" fill="#A9DCDF" rx="11" ry="11" style="stroke:#181818;stroke-width:1;"/><path d="M333.6652,458.3438 L332.509,463.4219 L334.8371,463.4219 L333.6652,458.3438 Z M332.1808,456.1094 L335.1652,456.1094 L338.5246,468.5 L336.0715,468.5 L335.3058,465.4375 L332.0246,465.4375 L331.2746,468.5 L328.8371,468.5 L332.1808,456.1094 Z " fill="#000000"/><text fill="#000000" font-family="sans-serif" font-size="14" font-style="italic" lengthAdjust="spacing" textLength="42.5318" x="348.346" y="468.432">Person</text><line style="stroke:#181818;stroke-width:0.5;" x1="316" x2="396.4337" y1="479" y2="479"/><text fill="#000000" font-family="sans-serif" font-size="14" lengthAdjust="spacing" textLength="70.4337" x="321" y="497.9659">+name: str</text><line style="stroke:#181818;stroke-width:0.5;" x1="316" x2="396.4337" y1="506.0679" y2="506.0679"/></g><!--class Client--><g class="entity" data-qualified-name="Client" data-source-line="5" id="ent0003"><rect fill="#F1F1F1" height="67.0679" rx="2.5" ry="2.5" style="stroke:#181818;stroke-width:0.5;" width="87.2217" x="312.5" y="309.5"/><ellipse cx="335.3965" cy="325.5" fill="#ADD1B2" rx="11" ry="11" style="stroke:#181818;stroke-width:1;"/><path d="M338.3653,331.1406 Q337.7872,331.4375 337.1465,331.5781 Q336.5059,331.7344 335.8028,331.7344 Q333.3028,331.7344 331.9747,330.0938 Q330.6622,328.4375 330.6622,325.3125 Q330.6622,322.1875 331.9747,320.5313 Q333.3028,318.875 335.8028,318.875 Q336.5059,318.875 337.1465,319.0313 Q337.8028,319.1875 338.3653,319.4844 L338.3653,322.2031 Q337.7403,321.625 337.1465,321.3594 Q336.5528,321.0781 335.9278,321.0781 Q334.584,321.0781 333.8965,322.1563 Q333.209,323.2188 333.209,325.3125 Q333.209,327.4063 333.8965,328.4844 Q334.584,329.5469 335.9278,329.5469 Q336.5528,329.5469 337.1465,329.2813 Q337.7403,329 338.3653,328.4219 L338.3653,331.1406 Z " fill="#000000"/><text fill="#000000" font-family="sans-serif" font-size="14" lengthAdjust="spacing" textLength="37.6738" x="351.1513" y="330.932">Client</text><line style="stroke:#181818;stroke-width:0.5;" x1="313.5" x2="398.7217" y1="341.5" y2="341.5"/><text fill="#000000" font-family="sans-serif" font-size="14" lengthAdjust="spacing" textLength="75.2217" x="318.5" y="360.4659">+phone: str</text><line style="stroke:#181818;stroke-width:0.5;" x1="313.5" x2="398.7217" y1="368.5679" y2="368.5679"/></g><!--class Bookable--><g class="entity" data-qualified-name="Bookable" data-source-line="8" id="ent0004"><rect fill="#F1F1F1" height="67.0679" rx="2.5" ry="2.5" style="stroke:#181818;stroke-width:0.5;" width="187.8253" x="90" y="447"/><ellipse cx="150.7878" cy="463" fill="#B4A7E5" rx="11" ry="11" style="stroke:#181818;stroke-width:1;"/><path d="M146.7096,458.7656 L146.7096,456.6094 L154.1003,456.6094 L154.1003,458.7656 L151.6315,458.7656 L151.6315,466.8438 L154.1003,466.8438 L154.1003,469 L146.7096,469 L146.7096,466.8438 L149.1784,466.8438 L149.1784,458.7656 L146.7096,458.7656 Z " fill="#000000"/><text fill="#000000" font-family="sans-serif" font-size="14" font-style="italic" lengthAdjust="spacing" textLength="57.7498" x="171.2878" y="468.432">Bookable</text><line style="stroke:#181818;stroke-width:0.5;" x1="91" x2="276.8253" y1="479" y2="479"/><line style="stroke:#181818;stroke-width:0.5;" x1="91" x2="276.8253" y1="487" y2="487"/><text fill="#000000" font-family="sans-serif" font-size="14" lengthAdjust="spacing" textLength="175.8253" x="96" y="505.9659">+isFree(at: DateTime): bool</text></g><!--class Restaurant--><g class="entity" data-qualified-name="Restaurant" data-source-line="11" id="ent0005"><rect fill="#F1F1F1" height="67.0679" rx="2.5" ry="2.5" style="stroke:#181818;stroke-width:0.5;" width="104.2117" x="7" y="144.5"/><ellipse cx="22" cy="160.5" fill="#ADD1B2" rx="11" ry="11" style="stroke:#181818;stroke-width:1;"/><path d="M24.9688,166.1406 Q24.3906,166.4375 23.75,166.5781 Q23.1094,166.7344 22.4063,166.7344 Q19.9063,166.7344 18.5781,165.0938 Q17.2656,163.4375 17.2656,160.3125 Q17.2656,157.1875 18.5781,155.5313 Q19.9063,153.875 22.4063,153.875 Q23.1094,153.875 23.75,154.0313 Q24.4063,154.1875 24.9688,154.4844 L24.9688,157.2031 Q24.3438,156.625 23.75,156.3594 Q23.1563,156.0781 22.5313,156.0781 Q21.1875,156.0781 20.5,157.1563 Q19.8125,158.2188 19.8125,160.3125 Q19.8125,162.4063 20.5,163.4844 Q21.1875,164.5469 22.5313,164.5469 Q23.1563,164.5469 23.75,164.2813 Q24.3438,164 24.9688,163.4219 L24.9688,166.1406 Z " fill="#000000"/><text fill="#000000" font-family="sans-serif" font-size="14" lengthAdjust="spacing" textLength="72.2117" x="36" y="165.932">Restaurant</text><line style="stroke:#181818;stroke-width:0.5;" x1="8" x2="110.2117" y1="176.5" y2="176.5"/><text fill="#000000" font-family="sans-serif" font-size="14" lengthAdjust="spacing" textLength="70.4337" x="13" y="195.4659">+name: str</text><line style="stroke:#181818;stroke-width:0.5;" x1="8" x2="110.2117" y1="203.5679" y2="203.5679"/></g><!--class Table--><g class="entity" data-qualified-name="Table" data-source-line="14" id="ent0006"><rect fill="#F1F1F1" height="86.1358" rx="2.5" ry="2.5" style="stroke:#181818;stroke-width:0.5;" width="98.2817" x="135" y="300"/><ellipse cx="163.7366" cy="316" fill="#ADD1B2" rx="11" ry="11" style="stroke:#181818;stroke-width:1;"/><path d="M166.7054,321.6406 Q166.1272,321.9375 165.4866,322.0781 Q164.846,322.2344 164.1429,322.2344 Q161.6429,322.2344 160.3147,320.5938 Q159.0022,318.9375 159.0022,315.8125 Q159.0022,312.6875 160.3147,311.0313 Q161.6429,309.375 164.1429,309.375 Q164.846,309.375 165.4866,309.5313 Q166.1429,309.6875 166.7054,309.9844 L166.7054,312.7031 Q166.0804,312.125 165.4866,311.8594 Q164.8929,311.5781 164.2679,311.5781 Q162.9241,311.5781 162.2366,312.6563 Q161.5491,313.7188 161.5491,315.8125 Q161.5491,317.9063 162.2366,318.9844 Q162.9241,320.0469 164.2679,320.0469 Q164.8929,320.0469 165.4866,319.7813 Q166.0804,319.5 166.7054,318.9219 L166.7054,321.6406 Z " fill="#000000"/><text fill="#000000" font-family="sans-serif" font-size="14" lengthAdjust="spacing" textLength="35.7559" x="180.7892" y="321.432">Table</text><line style="stroke:#181818;stroke-width:0.5;" x1="136" x2="232.2817" y1="332" y2="332"/><text fill="#000000" font-family="sans-serif" font-size="14" lengthAdjust="spacing" textLength="85.3997" x="141" y="350.9659">+number: int</text><text fill="#000000" font-family="sans-serif" font-size="14" lengthAdjust="spacing" textLength="86.2817" x="141" y="370.0339">+capacity: int</text><line style="stroke:#181818;stroke-width:0.5;" x1="136" x2="232.2817" y1="378.1358" y2="378.1358"/></g><!--class Waiter--><g class="entity" data-qualified-name="Waiter" data-source-line="18" id="ent0007"><rect fill="#F1F1F1" height="67.0679" rx="2.5" ry="2.5" style="stroke:#181818;stroke-width:0.5;" width="75.2178" x="146.5" y="144.5"/><ellipse cx="161.5" cy="160.5" fill="#ADD1B2" rx="11" ry="11" style="stroke:#181818;stroke-width:1;"/><path d="M164.4688,166.1406 Q163.8906,166.4375 163.25,166.5781 Q162.6094,166.7344 161.9063,166.7344 Q159.4063,166.7344 158.0781,165.0938 Q156.7656,163.4375 156.7656,160.3125 Q156.7656,157.1875 158.0781,155.5313 Q159.4063,153.875 161.9063,153.875 Q162.6094,153.875 163.25,154.0313 Q163.9063,154.1875 164.4688,154.4844 L164.4688,157.2031 Q163.8438,156.625 163.25,156.3594 Q162.6563,156.0781 162.0313,156.0781 Q160.6875,156.0781 160,157.1563 Q159.3125,158.2188 159.3125,160.3125 Q159.3125,162.4063 160,163.4844 Q160.6875,164.5469 162.0313,164.5469 Q162.6563,164.5469 163.25,164.2813 Q163.8438,164 164.4688,163.4219 L164.4688,166.1406 Z " fill="#000000"/><text fill="#000000" font-family="sans-serif" font-size="14" lengthAdjust="spacing" textLength="43.2178" x="175.5" y="165.932">Waiter</text><line style="stroke:#181818;stroke-width:0.5;" x1="147.5" x2="220.7178" y1="176.5" y2="176.5"/><text fill="#000000" font-family="sans-serif" font-size="14" lengthAdjust="spacing" textLength="61.7818" x="152.5" y="195.4659">+shift: str</text><line style="stroke:#181818;stroke-width:0.5;" x1="147.5" x2="220.7178" y1="203.5679" y2="203.5679"/></g><!--class Reservation--><g class="entity" data-qualified-name="Reservation" data-source-line="21" id="ent0008"><rect fill="#F1F1F1" height="86.1358" rx="2.5" ry="2.5" style="stroke:#181818;stroke-width:0.5;" width="110.1676" x="279" y="135"/><ellipse cx="294.1917" cy="151" fill="#ADD1B2" rx="11" ry="11" style="stroke:#181818;stroke-width:1;"/><path d="M297.1604,156.6406 Q296.5823,156.9375 295.9417,157.0781 Q295.301,157.2344 294.5979,157.2344 Q292.0979,157.2344 290.7698,155.5938 Q289.4573,153.9375 289.4573,150.8125 Q289.4573,147.6875 290.7698,146.0313 Q292.0979,144.375 294.5979,144.375 Q295.301,144.375 295.9417,144.5313 Q296.5979,144.6875 297.1604,144.9844 L297.1604,147.7031 Q296.5354,147.125 295.9417,146.8594 Q295.3479,146.5781 294.7229,146.5781 Q293.3792,146.5781 292.6917,147.6563 Q292.0042,148.7188 292.0042,150.8125 Q292.0042,152.9063 292.6917,153.9844 Q293.3792,155.0469 294.7229,155.0469 Q295.3479,155.0469 295.9417,154.7813 Q296.5354,154.5 297.1604,153.9219 L297.1604,156.6406 Z " fill="#000000"/><text fill="#000000" font-family="sans-serif" font-size="14" lengthAdjust="spacing" textLength="77.7417" x="308.2343" y="156.432">Reservation</text><line style="stroke:#181818;stroke-width:0.5;" x1="280" x2="388.1676" y1="167" y2="167"/><text fill="#000000" font-family="sans-serif" font-size="14" lengthAdjust="spacing" textLength="75.8377" x="285" y="185.9659">+date: Date</text><text fill="#000000" font-family="sans-serif" font-size="14" lengthAdjust="spacing" textLength="98.1676" x="285" y="205.0339">+party_size: int</text><line style="stroke:#181818;stroke-width:0.5;" x1="280" x2="388.1676" y1="213.1358" y2="213.1358"/></g><!--class BookingService--><g class="entity" data-qualified-name="BookingService" data-source-line="25" id="ent0009"><rect fill="#F1F1F1" height="67.0679" rx="2.5" ry="2.5" style="stroke:#181818;stroke-width:0.5;" width="318.2768" x="175" y="7"/><ellipse cx="279.3416" cy="23" fill="#ADD1B2" rx="11" ry="11" style="stroke:#181818;stroke-width:1;"/><path d="M282.3103,28.6406 Q281.7322,28.9375 281.0916,29.0781 Q280.451,29.2344 279.7478,29.2344 Q277.2478,29.2344 275.9197,27.5938 Q274.6072,25.9375 274.6072,22.8125 Q274.6072,19.6875 275.9197,18.0313 Q277.2478,16.375 279.7478,16.375 Q280.451,16.375 281.0916,16.5313 Q281.7478,16.6875 282.3103,16.9844 L282.3103,19.7031 Q281.6853,19.125 281.0916,18.8594 Q280.4978,18.5781 279.8728,18.5781 Q278.5291,18.5781 277.8416,19.6563 Q277.1541,20.7188 277.1541,22.8125 Q277.1541,24.9063 277.8416,25.9844 Q278.5291,27.0469 279.8728,27.0469 Q280.4978,27.0469 281.0916,26.7813 Q281.6853,26.5 282.3103,25.9219 L282.3103,28.6406 Z " fill="#000000"/><text fill="#000000" font-family="sans-serif" font-size="14" lengthAdjust="spacing" textLength="101.0936" x="299.8416" y="28.432">BookingService</text><line style="stroke:#181818;stroke-width:0.5;" x1="176" x2="492.2768" y1="39" y2="39"/><line style="stroke:#181818;stroke-width:0.5;" x1="176" x2="492.2768" y1="47" y2="47"/><text fill="#000000" font-family="sans-serif" font-size="14" lengthAdjust="spacing" textLength="306.2768" x="181" y="65.9659">+book(client: Client, at: DateTime): Reservation</text></g><!--link Client to Person--><g class="link" data-entity-1="ent0003" data-entity-2="ent0002" data-link-type="extension" data-source-line="28" id="lnk10"><path codeLine="28" d="M356,376.8 C356,397.95 356,407.35 356,428.53" fill="none" id="Client-to-Person" style="stroke:#181818;stroke-width:1;"/><polygon fill="none" points="356,446.53,362,428.53,350,428.53,356,446.53" style="stroke:#181818;stroke-width:1;"/></g><!--link Table to Bookable--><g class="link" data-entity-1="ent0006" data-entity-2="ent0004" data-link-type="extension" data-source-line="29" id="lnk11"><path codeLine="29" d="M184,386.13 C184,405.71 184,410.63 184,428.87" fill="none" id="Table-to-Bookable" style="stroke:#181818;stroke-width:1;stroke-dasharray:7,7;"/><polygon fill="none" points="184,446.87,190,428.87,178,428.87,184,446.87" style="stroke:#181818;stroke-width:1;"/></g><!--reverse link Restaurant to Table--><g class="link" data-entity-1="ent0005" data-entity-2="ent0006" data-link-type="composition" data-source-line="30" id="lnk12"><path codeLine="30" d="M91.3011,221.1133 C110.7511,246.4833 130.59,272.35 151.69,299.86" fill="none" id="Restaurant-backto-Table" style="stroke:#181818;stroke-width:1;"/><polygon fill="#181818" points="84,211.59,84.4761,218.7854,91.3011,221.1133,90.825,213.918,84,211.59" style="stroke:#181818;stroke-width:1;"/><text fill="#000000" font-family="sans-serif" font-size="13" lengthAdjust="spacing" textLength="7.436" x="81.1198" y="233.5712">1</text><text fill="#000000" font-family="sans-serif" font-size="13" lengthAdjust="spacing" textLength="21.567" x="123.6232" y="288.2514">1..*</text></g><!--reverse link Waiter to Table--><g class="link" data-entity-1="ent0007" data-entity-2="ent0006" data-link-type="aggregation" data-source-line="31" id="lnk13"><path codeLine="31" d="M184,223.59 C184,248.96 184,272.35 184,299.86" fill="none" id="Waiter-backto-Table" style="stroke:#181818;stroke-width:1;"/><polygon fill="none" points="184,211.59,180,217.59,184,223.59,188,217.59,184,211.59" style="stroke:#181818;stroke-width:1;"/><text fill="#000000" font-family="sans-serif" font-size="13" lengthAdjust="spacing" textLength="21.84" x="161.0577" y="233.5712">0..1</text><text fill="#000000" font-family="sans-serif" font-size="13" lengthAdjust="spacing" textLength="7.163" x="176.4105" y="288.2514">*</text></g><!--link Reservation to Client--><g class="link" data-entity-1="ent0008" data-entity-2="ent0003" data-link-type="dependency" data-source-line="32" id="lnk14"><path codeLine="32" d="M339.72,221.4 C343.43,248.85 347.3779,278.1039 350.7879,303.3839" fill="none" id="Reservation-to-Client" style="stroke:#181818;stroke-width:1;"/><polygon fill="#181818" points="351.59,309.33,354.351,299.8761,350.9216,304.3749,346.4228,300.9455,351.59,309.33" style="stroke:#181818;stroke-width:1;"/><text fill="#000000" font-family="sans-serif" font-size="13" lengthAdjust="spacing" textLength="66.3911" x="346" y="265.897">booked_by</text><text fill="#000000" font-family="sans-serif" font-size="13" lengthAdjust="spacing" textLength="7.163" x="333.0457" y="242.9617">*</text><text fill="#000000" font-family="sans-serif" font-size="13" lengthAdjust="spacing" textLength="7.436" x="342.9807" y="297.5953">1</text></g><!--link Reservation to Table--><g class="link" data-entity-1="ent0008" data-entity-2="ent0006" data-link-type="dependency" data-source-line="33" id="lnk15"><path codeLine="33" d="M290.81,221.11 C281.18,230.79 271.13,241.14 262,251 C247.58,266.57 236.1546,279.6073 222.9446,295.1573" fill="none" id="Reservation-to-Table" style="stroke:#181818;stroke-width:1;"/><polygon fill="#181818" points="219.06,299.73,227.9354,295.4607,222.2972,295.9194,221.8384,290.2812,219.06,299.73" style="stroke:#181818;stroke-width:1;"/><text fill="#000000" font-family="sans-serif" font-size="13" lengthAdjust="spacing" textLength="72.7871" x="263" y="265.897">assigned_to</text><text fill="#000000" font-family="sans-serif" font-size="13" lengthAdjust="spacing" textLength="7.163" x="276.6602" y="242.9534">*</text><text fill="#000000" font-family="sans-serif" font-size="13" lengthAdjust="spacing" textLength="21.84" x="202.174" y="288.0998">0..1</text></g><!--link BookingService to Reservation--><g class="link" data-entity-1="ent0009" data-entity-2="ent0008" data-link-type="dependency" data-source-line="34" id="lnk16"><path codeLine="34" d="M334,74.3 C334,92.47 334,109.26 334,128.75" fill="none" id="BookingService-to-Reservation" style="stroke:#181818;stroke-width:1;stroke-dasharray:7,7;"/><polygon fill="#181818" points="334,134.75,338,125.75,334,129.75,330,125.75,334,134.75" style="stroke:#181818;stroke-width:1;"/></g><?plantuml-src VL5DQyCm3BtxLvYSkcuntJM7mZuOx3RMmev5STNM9B6BhGwwZ_y-DNO-2AEvn9AUzAJtGcNi4JmqKjSGmWEHD-M9y5Kxkp9VA1S2oa0UD4M4pDxG1sSp2K76f_mMahzR2mqMai7YLoJiKstGKekDpmvxF3ZRWuqbz3lGABD7voeeQsnRkg1hCk758yw02laCX6lJu4qXI-VgWV4T0y79Gs8TmYjRhdl6zPZEdfeIVI5vlPZGS0Hjw1nJVVi76Dw_xO_FRa0uc1rDk7WXz9z09aauYhksBTyMBqnQWQVp9h0R4-ABFiRkLpp0w46o8TLDP8cgcMuDA98HTt8YusWHPaXkvVdFChaieZPASQOpHepapUupESzp_YirpwAI8kcHBPJYihkK-zhuyaispvVja4JT6blXTbEU_uV6cN6hWcyFPcyPJavCH51gERxk3m00?></g></svg>