<?plantuml 1.2026.2?><svg xmlns="http://www.w3.org/2000/svg" xmlns:xlink="http://www.w3.org/1999/xlink" contentStyleType="text/css" data-diagram-type="DESCRIPTION" height="427px" preserveAspectRatio="none" style="width:422px;height:427px;background:#FFFFFF;" version="1.1" viewBox="0 0 422 427" width="422px" zoomAndPan="magnify"><title>Paquetes del ecosistema (miembros dentro del paquete)</title><defs/><g><g class="title" data-source-line="2"><text fill="#000000" font-family="sans-serif" font-size="14" font-weight="bold" lengthAdjust="spacing" textLength="394.2245" x="10" y="24.9659">Paquetes del ecosistema (miembros dentro del paquete)</text></g><!--cluster hum-ecosystem--><g class="cluster" data-qualified-name="hum-ecosystem" data-source-line="3" id="ent0002"><path d="M150.8623,44.0679 L262.6299,44.0679 A3.75,3.75 0 0 1 265.1299,46.5679 L272.1299,69.1358 L391.8623,69.1358 A2.5,2.5 0 0 1 394.3623,71.6358 L394.3623,417.5679 A2.5,2.5 0 0 1 391.8623,420.0679 L150.8623,420.0679 A2.5,2.5 0 0 1 148.3623,417.5679 L148.3623,46.5679 A2.5,2.5 0 0 1 150.8623,44.0679" fill="none" style="stroke:#000000;stroke-width:1.5;"/><line style="stroke:#000000;stroke-width:1.5;" x1="148.3623" x2="272.1299" y1="69.1358" y2="69.1358"/><text fill="#000000" font-family="sans-serif" font-size="14" font-weight="bold" lengthAdjust="spacing" textLength="110.7676" x="152.3623" y="61.0339">hum-ecosystem</text></g><!--cluster tools--><g class="cluster" data-qualified-name="hum-ecosystem.tools" data-source-line="4" id="ent0003"><path d="M158.8623,74.0679 L194.4982,74.0679 A3.75,3.75 0 0 1 196.9982,76.5679 L203.9982,99.1358 L383.8623,99.1358 A2.5,2.5 0 0 1 386.3623,101.6358 L386.3623,409.5679 A2.5,2.5 0 0 1 383.8623,412.0679 L158.8623,412.0679 A2.5,2.5 0 0 1 156.3623,409.5679 L156.3623,76.5679 A2.5,2.5 0 0 1 158.8623,74.0679" fill="none" style="stroke:#000000;stroke-width:1.5;"/><line style="stroke:#000000;stroke-width:1.5;" x1="156.3623" x2="203.9982" y1="99.1358" y2="99.1358"/><text fill="#000000" font-family="sans-serif" font-size="14" font-weight="bold" lengthAdjust="spacing" textLength="34.6359" x="160.3623" y="91.0339">tools</text></g><!--cluster graph_ui--><g class="cluster" data-qualified-name="hum-ecosystem.tools.graph_ui" data-source-line="7" id="ent0006"><path d="M254.8623,104.0679 L316.8181,104.0679 A3.75,3.75 0 0 1 319.3181,106.5679 L326.3181,129.1358 L375.8623,129.1358 A2.5,2.5 0 0 1 378.3623,131.6358 L378.3623,401.5679 A2.5,2.5 0 0 1 375.8623,404.0679 L254.8623,404.0679 A2.5,2.5 0 0 1 252.3623,401.5679 L252.3623,106.5679 A2.5,2.5 0 0 1 254.8623,104.0679" fill="none" style="stroke:#000000;stroke-width:1.5;"/><line style="stroke:#000000;stroke-width:1.5;" x1="252.3623" x2="326.3181" y1="129.1358" y2="129.1358"/><text fill="#000000" font-family="sans-serif" font-size="14" font-weight="bold" lengthAdjust="spacing" textLength="60.9558" x="256.3623" y="121.0339">graph_ui</text></g><!--entity pron--><g class="entity" data-qualified-name="pron" data-source-line="14" id="ent0010"><path d="M29.3623,156.0679 L75.4442,156.0679 A3.75,3.75 0 0 1 77.9442,158.5679 L84.9442,181.1358 L99.4442,181.1358 A2.5,2.5 0 0 1 101.9442,183.6358 L101.9442,195.6358 A2.5,2.5 0 0 1 99.4442,198.1358 L29.3623,198.1358 A2.5,2.5 0 0 1 26.8623,195.6358 L26.8623,158.5679 A2.5,2.5 0 0 1 29.3623,156.0679" fill="#F1F1F1" style="stroke:#181818;stroke-width:0.5;"/><line style="stroke:#181818;stroke-width:0.5;" x1="26.8623" x2="84.9442" y1="181.1358" y2="181.1358"/><text fill="#000000" font-family="sans-serif" font-size="14" font-weight="bold" lengthAdjust="spacing" textLength="33.0819" x="36.8623" y="174.0339">pron</text></g><!--entity sldb--><g class="entity" data-qualified-name="hum-ecosystem.tools.sldb" data-source-line="5" id="ent0004"><path d="M167.3623,255.0679 L209.3142,255.0679 A3.75,3.75 0 0 1 211.8142,257.5679 L218.8142,280.1358 L233.3142,280.1358 A2.5,2.5 0 0 1 235.8142,282.6358 L235.8142,294.6358 A2.5,2.5 0 0 1 233.3142,297.1358 L167.3623,297.1358 A2.5,2.5 0 0 1 164.8623,294.6358 L164.8623,257.5679 A2.5,2.5 0 0 1 167.3623,255.0679" fill="#F1F1F1" style="stroke:#181818;stroke-width:0.5;"/><line style="stroke:#181818;stroke-width:0.5;" x1="164.8623" x2="218.8142" y1="280.1358" y2="280.1358"/><text fill="#000000" font-family="sans-serif" font-size="14" font-weight="bold" lengthAdjust="spacing" textLength="28.9519" x="174.8623" y="273.0339">sldb</text></g><!--entity kgdb--><g class="entity" data-qualified-name="hum-ecosystem.tools.kgdb" data-source-line="6" id="ent0005"><path d="M167.3623,156.0679 L215.6281,156.0679 A3.75,3.75 0 0 1 218.1281,158.5679 L225.1281,181.1358 L239.6281,181.1358 A2.5,2.5 0 0 1 242.1281,183.6358 L242.1281,195.6358 A2.5,2.5 0 0 1 239.6281,198.1358 L167.3623,198.1358 A2.5,2.5 0 0 1 164.8623,195.6358 L164.8623,158.5679 A2.5,2.5 0 0 1 167.3623,156.0679" fill="#F1F1F1" style="stroke:#181818;stroke-width:0.5;"/><line style="stroke:#181818;stroke-width:0.5;" x1="164.8623" x2="225.1281" y1="181.1358" y2="181.1358"/><text fill="#000000" font-family="sans-serif" font-size="14" font-weight="bold" lengthAdjust="spacing" textLength="35.2659" x="174.8623" y="174.0339">kgdb</text></g><!--entity source--><g class="entity" data-qualified-name="hum-ecosystem.tools.graph_ui.source" data-source-line="8" id="ent0007"><path d="M283.3623,354.0679 L343.0101,354.0679 A3.75,3.75 0 0 1 345.5101,356.5679 L352.5101,379.1358 L367.0101,379.1358 A2.5,2.5 0 0 1 369.5101,381.6358 L369.5101,393.6358 A2.5,2.5 0 0 1 367.0101,396.1358 L283.3623,396.1358 A2.5,2.5 0 0 1 280.8623,393.6358 L280.8623,356.5679 A2.5,2.5 0 0 1 283.3623,354.0679" fill="#F1F1F1" style="stroke:#181818;stroke-width:0.5;"/><line style="stroke:#181818;stroke-width:0.5;" x1="280.8623" x2="352.5101" y1="379.1358" y2="379.1358"/><text fill="#000000" font-family="sans-serif" font-size="14" font-weight="bold" lengthAdjust="spacing" textLength="46.6478" x="290.8623" y="372.0339">source</text></g><!--entity views--><g class="entity" data-qualified-name="hum-ecosystem.tools.graph_ui.views" data-source-line="9" id="ent0008"><path d="M287.3623,255.0679 L339.8141,255.0679 A3.75,3.75 0 0 1 342.3141,257.5679 L349.3141,280.1358 L363.8141,280.1358 A2.5,2.5 0 0 1 366.3141,282.6358 L366.3141,294.6358 A2.5,2.5 0 0 1 363.8141,297.1358 L287.3623,297.1358 A2.5,2.5 0 0 1 284.8623,294.6358 L284.8623,257.5679 A2.5,2.5 0 0 1 287.3623,255.0679" fill="#F1F1F1" style="stroke:#181818;stroke-width:0.5;"/><line style="stroke:#181818;stroke-width:0.5;" x1="284.8623" x2="349.3141" y1="280.1358" y2="280.1358"/><text fill="#000000" font-family="sans-serif" font-size="14" font-weight="bold" lengthAdjust="spacing" textLength="39.4519" x="294.8623" y="273.0339">views</text></g><!--entity shell--><g class="entity" data-qualified-name="hum-ecosystem.tools.graph_ui.shell" data-source-line="10" id="ent0009"><path d="M297.3623,156.0679 L343.3322,156.0679 A3.75,3.75 0 0 1 345.8322,158.5679 L352.8322,181.1358 L367.3322,181.1358 A2.5,2.5 0 0 1 369.8322,183.6358 L369.8322,195.6358 A2.5,2.5 0 0 1 367.3322,198.1358 L297.3623,198.1358 A2.5,2.5 0 0 1 294.8623,195.6358 L294.8623,158.5679 A2.5,2.5 0 0 1 297.3623,156.0679" fill="#F1F1F1" style="stroke:#181818;stroke-width:0.5;"/><line style="stroke:#181818;stroke-width:0.5;" x1="294.8623" x2="352.8322" y1="181.1358" y2="181.1358"/><text fill="#000000" font-family="sans-serif" font-size="14" font-weight="bold" lengthAdjust="spacing" textLength="32.9699" x="304.8623" y="174.0339">shell</text></g><g class="link" data-entity-1="ent0005" data-entity-2="ent0004" data-link-type="dependency" id="lnk11"><polygon fill="#181818" points="200.9831,254.9952,205.2594,246.1232,201.1376,249.9976,197.2632,245.8759,200.9831,254.9952" style="stroke:#181818;stroke-width:1;"/><path d="M202.7407,198.1664 C202.2258,214.814 201.6832,232.3576 201.1686,248.9981" fill="none" style="stroke:#181818;stroke-width:1;stroke-dasharray:7,7;"/><text fill="#000000" font-family="sans-serif" font-size="13" lengthAdjust="spacing" textLength="41.431" x="204.3623" y="231.9649">import</text></g><g class="link" data-entity-1="ent0010" data-entity-2="ent0005" data-link-type="dependency" id="lnk12"><polygon fill="#181818" points="164.7483,177.0679,155.7483,173.0679,159.7483,177.0679,155.7483,181.0679,164.7483,177.0679" style="stroke:#181818;stroke-width:1;"/><path d="M101.9777,177.0679 C121.4348,177.0679 139.1486,177.0679 158.7483,177.0679" fill="none" style="stroke:#181818;stroke-width:1;stroke-dasharray:7,7;"/><text fill="#000000" font-family="sans-serif" font-size="13" lengthAdjust="spacing" textLength="41.431" x="112.8623" y="168.9649">import</text></g><g class="link" data-entity-1="ent0010" data-entity-2="ent0004" data-link-type="dependency" id="lnk13"><polygon fill="#181818" points="172.2191,254.9952,167.2145,246.5126,168.1484,252.0918,162.5692,253.0257,172.2191,254.9952" style="stroke:#181818;stroke-width:1;"/><path d="M92.5416,198.1664 C115.8825,214.814 144.0033,234.8707 167.3343,251.5112" fill="none" style="stroke:#181818;stroke-width:1;stroke-dasharray:7,7;"/><text fill="#000000" font-family="sans-serif" font-size="13" lengthAdjust="spacing" textLength="41.431" x="147.3623" y="231.9649">import</text></g><g class="link" data-entity-1="ent0006" data-entity-2="ent0010" data-link-type="dependency" id="lnk14"><polygon fill="#181818" points="72.729,155.915,80.0227,149.2967,74.7481,151.3408,72.704,146.0661,72.729,155.915" style="stroke:#181818;stroke-width:1;"/><path d="M276.8738,103.6006 C276.8563,103.4426 276.8384,103.2847 276.8203,103.1268 C276.7476,102.4953 276.6697,101.8645 276.5864,101.2347 C276.4199,99.9751 276.2319,98.7195 276.0211,97.4697 C275.1779,92.4704 273.9704,87.5633 272.3158,82.8634 C269.0065,73.4635 263.9091,64.892 256.3623,58.0679 C222.0778,27.0668 193.6346,37.2572 152.3623,58.0679 C111.7525,78.5446 87.6536,122.1039 75.1519,150.4259" fill="none" style="stroke:#181818;stroke-width:1;stroke-dasharray:7,7;"/><text fill="#000000" font-family="sans-serif" font-size="13" lengthAdjust="spacing" textLength="41.431" x="160.8623" y="30.9649">import</text></g><g class="link" data-entity-1="ent0008" data-entity-2="ent0007" data-link-type="dependency" id="lnk15"><polygon fill="#181818" points="325.3623,353.9952,329.3623,344.9952,325.3623,348.9952,321.3623,344.9952,325.3623,353.9952" style="stroke:#181818;stroke-width:1;"/><path d="M325.3623,297.1664 C325.3623,313.814 325.3623,331.3547 325.3623,347.9952" fill="none" style="stroke:#181818;stroke-width:1;stroke-dasharray:7,7;"/><text fill="#000000" font-family="sans-serif" font-size="13" lengthAdjust="spacing" textLength="41.431" x="327.3623" y="330.9649">import</text></g><g class="link" data-entity-1="ent0009" data-entity-2="ent0008" data-link-type="dependency" id="lnk16"><polygon fill="#181818" points="326.8108,254.9952,331.4482,246.3065,327.1707,250.0082,323.469,245.7306,326.8108,254.9952" style="stroke:#181818;stroke-width:1;"/><path d="M330.9119,198.1664 C329.7105,214.814 328.4435,232.3703 327.2427,249.0108" fill="none" style="stroke:#181818;stroke-width:1;stroke-dasharray:7,7;"/><text fill="#000000" font-family="sans-serif" font-size="13" lengthAdjust="spacing" textLength="41.431" x="331.3623" y="231.9649">import</text></g><?plantuml-src ROz1SW8X44NtdA9b5HTwW2noXjp0QiUk6KgOHcYqh9GdoX6oysG9JPdCP5omUUz_-AnYmZuWUBno4SY114SquiGJlEEfa5260tcWZhFBGZ_Xb-0ex1DNCKfYzR65roPYTyIUm0ubR6hhMbiMFWp0hnDcdnkRqEmFUpj7ntw1-eHns1Ntg4ylu98wil_nsT4bBsWUoFj6RwQUsz_sc7YqfZuEs-qRr67m2lTF5o8dkN-P6b2bcUTgsNfCLwsvcTQThQeVcLlTgxRbfl8R?></g></svg>