<?xml version="1.0" encoding="UTF-8" standalone="no"?>
<!DOCTYPE svg PUBLIC "-//W3C//DTD SVG 1.1//EN"
 "http://www.w3.org/Graphics/SVG/1.1/DTD/svg11.dtd">
<!-- Generated by graphviz version 2.43.0 (0)
 -->
<!-- Title: abastece Pages: 1 -->
<svg width="406pt" height="325pt"
 viewBox="0.00 0.00 405.98 324.53" xmlns="http://www.w3.org/2000/svg" xmlns:xlink="http://www.w3.org/1999/xlink">
<g id="graph0" class="graph" transform="scale(1 1) rotate(0) translate(4 320.53)">
<title>abastece</title>
<polygon fill="white" stroke="transparent" points="-4,4 -4,-320.53 401.98,-320.53 401.98,4 -4,4"/>
<!-- PROVEEDOR -->
<g id="node1" class="node">
<title>PROVEEDOR</title>
<polygon fill="none" stroke="black" points="106.5,-261.52 2.5,-261.52 2.5,-225.52 106.5,-225.52 106.5,-261.52"/>
<text text-anchor="middle" x="54.5" y="-239.82" font-family="Liberation Sans" font-size="14.00">PROVEEDOR</text>
</g>
<!-- ABASTECE -->
<g id="node4" class="node">
<title>ABASTECE</title>
<polygon fill="none" stroke="black" points="192.02,-184.51 110.41,-166.51 192.02,-148.51 273.63,-166.51 192.02,-184.51"/>
<text text-anchor="middle" x="192.02" y="-162.81" font-family="Liberation Sans" font-size="14.00">ABASTECE</text>
</g>
<!-- PROVEEDOR&#45;&#45;ABASTECE -->
<g id="edge4" class="edge">
<title>PROVEEDOR&#45;&#45;ABASTECE</title>
<path fill="none" stroke="black" d="M86.74,-225.47C111.83,-211.42 146.05,-192.26 168.57,-179.64"/>
<text text-anchor="middle" x="107.12" y="-216.02" font-family="Liberation Sans" font-size="10.00">proveedor</text>
<text text-anchor="middle" x="107.12" y="-205.02" font-family="Liberation Sans" font-size="10.00">1</text>
</g>
<!-- p_rut -->
<g id="node6" class="node">
<title>p_rut</title>
<ellipse fill="none" stroke="black" cx="27" cy="-298.53" rx="27" ry="18"/>
<text text-anchor="start" x="19" y="-295.83" font-family="Liberation Sans" text-decoration="underline" font-size="14.00">rut</text>
</g>
<!-- PROVEEDOR&#45;&#45;p_rut -->
<g id="edge1" class="edge">
<title>PROVEEDOR&#45;&#45;p_rut</title>
<path fill="none" stroke="black" d="M45.5,-261.53C42.3,-267.93 38.72,-275.1 35.56,-281.41"/>
</g>
<!-- INGREDIENTE -->
<g id="node2" class="node">
<title>INGREDIENTE</title>
<polygon fill="none" stroke="black" points="384.53,-261.52 274.53,-261.52 274.53,-225.52 384.53,-225.52 384.53,-261.52"/>
<text text-anchor="middle" x="329.53" y="-239.82" font-family="Liberation Sans" font-size="14.00">INGREDIENTE</text>
</g>
<!-- INGREDIENTE&#45;&#45;ABASTECE -->
<g id="edge5" class="edge">
<title>INGREDIENTE&#45;&#45;ABASTECE</title>
<path fill="none" stroke="black" d="M297.29,-225.47C272.2,-211.42 237.98,-192.26 215.46,-179.64"/>
<text text-anchor="middle" x="231.41" y="-216.02" font-family="Liberation Sans" font-size="10.00">ingrediente</text>
<text text-anchor="middle" x="231.41" y="-205.02" font-family="Liberation Sans" font-size="10.00">N</text>
</g>
<!-- i_nombre -->
<g id="node7" class="node">
<title>i_nombre</title>
<ellipse fill="none" stroke="black" cx="357.03" cy="-298.53" rx="40.89" ry="18"/>
<text text-anchor="start" x="333.53" y="-295.83" font-family="Liberation Sans" text-decoration="underline" font-size="14.00">nombre</text>
</g>
<!-- INGREDIENTE&#45;&#45;i_nombre -->
<g id="edge2" class="edge">
<title>INGREDIENTE&#45;&#45;i_nombre</title>
<path fill="none" stroke="black" d="M338.54,-261.53C341.61,-267.67 345.04,-274.54 348.1,-280.66"/>
</g>
<!-- LOCAL -->
<g id="node3" class="node">
<title>LOCAL</title>
<polygon fill="none" stroke="black" points="223.02,-91.01 161.02,-91.01 161.02,-55.01 223.02,-55.01 223.02,-91.01"/>
<text text-anchor="middle" x="192.02" y="-69.31" font-family="Liberation Sans" font-size="14.00">LOCAL</text>
</g>
<!-- LOCAL&#45;&#45;ABASTECE -->
<g id="edge6" class="edge">
<title>LOCAL&#45;&#45;ABASTECE</title>
<path fill="none" stroke="black" d="M192.02,-91.04C192.02,-107.49 192.02,-131.69 192.02,-148.22"/>
<text text-anchor="middle" x="181.52" y="-133.6" font-family="Liberation Sans" font-size="10.00">local</text>
<text text-anchor="middle" x="181.52" y="-122.6" font-family="Liberation Sans" font-size="10.00">N</text>
</g>
<!-- l_comuna -->
<g id="node8" class="node">
<title>l_comuna</title>
<ellipse fill="none" stroke="black" cx="192.02" cy="-18" rx="42.49" ry="18"/>
<text text-anchor="start" x="167.52" y="-15.3" font-family="Liberation Sans" text-decoration="underline" font-size="14.00">comuna</text>
</g>
<!-- LOCAL&#45;&#45;l_comuna -->
<g id="edge3" class="edge">
<title>LOCAL&#45;&#45;l_comuna</title>
<path fill="none" stroke="black" d="M192.02,-54.99C192.02,-48.98 192.02,-42.27 192.02,-36.24"/>
</g>
<!-- kg -->
<g id="node5" class="node">
<title>kg</title>
<ellipse fill="none" stroke="black" cx="280.03" cy="-122.51" rx="67.69" ry="18"/>
<text text-anchor="middle" x="280.03" y="-118.81" font-family="Liberation Sans" font-size="14.00">kg_semanales</text>
</g>
<!-- ABASTECE&#45;&#45;kg -->
<g id="edge7" class="edge">
<title>ABASTECE&#45;&#45;kg</title>
<path fill="none" stroke="black" d="M217,-154.02C226.66,-149.19 237.82,-143.61 248.05,-138.5"/>
</g>
</g>
</svg>
