<?xml version="1.0" encoding="UTF-8" standalone="no"?>
<!DOCTYPE svg PUBLIC "-//W3C//DTD SVG 1.1//EN"
 "http://www.w3.org/Graphics/SVG/1.1/DTD/svg11.dtd">
<!-- Generated by graphviz version 2.43.0 (0)
 -->
<!-- Title: mesas Pages: 1 -->
<svg width="778pt" height="397pt"
 viewBox="0.00 0.00 778.00 397.00" xmlns="http://www.w3.org/2000/svg" xmlns:xlink="http://www.w3.org/1999/xlink">
<g id="graph0" class="graph" transform="scale(1 1) rotate(0) translate(4 393)">
<title>mesas</title>
<polygon fill="white" stroke="transparent" points="-4,4 -4,-393 774,-393 774,4 -4,4"/>
<!-- mesas&#45;libres -->
<g id="node1" class="node">
<title>mesas&#45;libres</title>
<ellipse fill="none" stroke="black" cx="56" cy="-194" rx="56" ry="56"/>
<text text-anchor="middle" x="56" y="-197.2" font-family="Helvetica,sans-Serif" font-size="11.00">mesas libres</text>
<text text-anchor="middle" x="56" y="-185.2" font-family="Helvetica,sans-Serif" font-size="11.00">●●</text>
</g>
<!-- sentar&#45;pareja -->
<g id="node7" class="node">
<title>sentar&#45;pareja</title>
<polygon fill="black" stroke="black" points="298.5,-346 208.5,-346 208.5,-310 298.5,-310 298.5,-346"/>
<text text-anchor="middle" x="253.5" y="-325.2" font-family="Helvetica,sans-Serif" font-size="11.00" fill="white">sentar pareja</text>
</g>
<!-- mesas&#45;libres&#45;&gt;sentar&#45;pareja -->
<g id="edge2" class="edge">
<title>mesas&#45;libres&#45;&gt;sentar&#45;pareja</title>
<path fill="none" stroke="black" d="M95.46,-234.02C106.15,-244.09 118.1,-254.46 130,-263 152.61,-279.23 179.77,-294.05 202.77,-305.43"/>
<polygon fill="black" stroke="black" points="201.49,-308.7 212.01,-309.93 204.55,-302.41 201.49,-308.7"/>
</g>
<!-- sentar&#45;grupo -->
<g id="node8" class="node">
<title>sentar&#45;grupo</title>
<polygon fill="black" stroke="black" points="349,-183 158,-183 158,-147 349,-147 349,-183"/>
<text text-anchor="middle" x="253.5" y="-162.2" font-family="Helvetica,sans-Serif" font-size="11.00" fill="white">sentar grupo (junta dos mesas)</text>
</g>
<!-- mesas&#45;libres&#45;&gt;sentar&#45;grupo -->
<g id="edge5" class="edge">
<title>mesas&#45;libres&#45;&gt;sentar&#45;grupo</title>
<path fill="none" stroke="black" d="M111.46,-185.92C122.87,-184.23 135.27,-182.39 147.82,-180.53"/>
<polygon fill="black" stroke="black" points="148.52,-183.96 157.9,-179.03 147.49,-177.04 148.52,-183.96"/>
<text text-anchor="middle" x="135" y="-186.8" font-family="Helvetica,sans-Serif" font-size="14.00">2</text>
</g>
<!-- pareja&#45;espera -->
<g id="node2" class="node">
<title>pareja&#45;espera</title>
<ellipse fill="none" stroke="black" cx="56" cy="-328" rx="56" ry="56"/>
<text text-anchor="middle" x="56" y="-331.2" font-family="Helvetica,sans-Serif" font-size="11.00">parejas esperando</text>
<text text-anchor="middle" x="56" y="-319.2" font-family="Helvetica,sans-Serif" font-size="11.00">●●</text>
</g>
<!-- pareja&#45;espera&#45;&gt;sentar&#45;pareja -->
<g id="edge1" class="edge">
<title>pareja&#45;espera&#45;&gt;sentar&#45;pareja</title>
<path fill="none" stroke="black" d="M112.24,-328C139.05,-328 171.17,-328 197.9,-328"/>
<polygon fill="black" stroke="black" points="198.23,-331.5 208.23,-328 198.23,-324.5 198.23,-331.5"/>
</g>
<!-- grupo&#45;espera -->
<g id="node3" class="node">
<title>grupo&#45;espera</title>
<ellipse fill="none" stroke="black" cx="56" cy="-56" rx="56" ry="56"/>
<text text-anchor="middle" x="56" y="-59.2" font-family="Helvetica,sans-Serif" font-size="11.00">grupos esperando</text>
<text text-anchor="middle" x="56" y="-47.2" font-family="Helvetica,sans-Serif" font-size="11.00">●</text>
</g>
<!-- grupo&#45;espera&#45;&gt;sentar&#45;grupo -->
<g id="edge4" class="edge">
<title>grupo&#45;espera&#45;&gt;sentar&#45;grupo</title>
<path fill="none" stroke="black" d="M105.33,-82.94C137.85,-101.08 180.27,-124.73 211.21,-141.98"/>
<polygon fill="black" stroke="black" points="209.58,-145.08 220.02,-146.89 212.99,-138.96 209.58,-145.08"/>
</g>
<!-- pareja&#45;come -->
<g id="node4" class="node">
<title>pareja&#45;come</title>
<ellipse fill="none" stroke="black" cx="451" cy="-333" rx="56" ry="56"/>
<text text-anchor="middle" x="451" y="-330.2" font-family="Helvetica,sans-Serif" font-size="11.00">parejas comiendo</text>
</g>
<!-- sale&#45;pareja -->
<g id="node9" class="node">
<title>sale&#45;pareja</title>
<polygon fill="black" stroke="black" points="621,-267 544,-267 544,-231 621,-231 621,-267"/>
<text text-anchor="middle" x="582.5" y="-246.2" font-family="Helvetica,sans-Serif" font-size="11.00" fill="white">sale pareja</text>
</g>
<!-- pareja&#45;come&#45;&gt;sale&#45;pareja -->
<g id="edge7" class="edge">
<title>pareja&#45;come&#45;&gt;sale&#45;pareja</title>
<path fill="none" stroke="black" d="M498.39,-302.91C513.65,-293.01 530.4,-282.14 544.84,-272.78"/>
<polygon fill="black" stroke="black" points="547.01,-275.54 553.5,-267.16 543.2,-269.67 547.01,-275.54"/>
</g>
<!-- grupo&#45;come -->
<g id="node5" class="node">
<title>grupo&#45;come</title>
<ellipse fill="none" stroke="black" cx="451" cy="-165" rx="56" ry="56"/>
<text text-anchor="middle" x="451" y="-162.2" font-family="Helvetica,sans-Serif" font-size="11.00">grupos comiendo</text>
</g>
<!-- sale&#45;grupo -->
<g id="node10" class="node">
<title>sale&#45;grupo</title>
<polygon fill="black" stroke="black" points="619.5,-183 545.5,-183 545.5,-147 619.5,-147 619.5,-183"/>
<text text-anchor="middle" x="582.5" y="-162.2" font-family="Helvetica,sans-Serif" font-size="11.00" fill="white">sale grupo</text>
</g>
<!-- grupo&#45;come&#45;&gt;sale&#45;grupo -->
<g id="edge10" class="edge">
<title>grupo&#45;come&#45;&gt;sale&#45;grupo</title>
<path fill="none" stroke="black" d="M507.3,-165C516.69,-165 526.35,-165 535.47,-165"/>
<polygon fill="black" stroke="black" points="535.49,-168.5 545.49,-165 535.49,-161.5 535.49,-168.5"/>
</g>
<!-- atendidos -->
<g id="node6" class="node">
<title>atendidos</title>
<ellipse fill="none" stroke="black" cx="714" cy="-206" rx="56" ry="56"/>
<text text-anchor="middle" x="714" y="-203.2" font-family="Helvetica,sans-Serif" font-size="11.00">atendidos</text>
</g>
<!-- sentar&#45;pareja&#45;&gt;pareja&#45;come -->
<g id="edge3" class="edge">
<title>sentar&#45;pareja&#45;&gt;pareja&#45;come</title>
<path fill="none" stroke="black" d="M298.86,-329.13C324.25,-329.78 356.56,-330.61 384.79,-331.33"/>
<polygon fill="black" stroke="black" points="384.9,-334.84 394.98,-331.59 385.08,-327.84 384.9,-334.84"/>
</g>
<!-- sentar&#45;grupo&#45;&gt;grupo&#45;come -->
<g id="edge6" class="edge">
<title>sentar&#45;grupo&#45;&gt;grupo&#45;come</title>
<path fill="none" stroke="black" d="M349.1,-165C361.11,-165 373.19,-165 384.61,-165"/>
<polygon fill="black" stroke="black" points="384.88,-168.5 394.88,-165 384.88,-161.5 384.88,-168.5"/>
</g>
<!-- sale&#45;pareja&#45;&gt;mesas&#45;libres -->
<g id="edge8" class="edge">
<title>sale&#45;pareja&#45;&gt;mesas&#45;libres</title>
<path fill="none" stroke="black" d="M543.99,-245.22C506.32,-241.41 446.63,-235.36 395,-230 277.2,-217.78 247.75,-214.67 130,-202 127.45,-201.73 124.85,-201.44 122.22,-201.16"/>
<polygon fill="black" stroke="black" points="122.32,-197.65 112,-200.05 121.57,-204.61 122.32,-197.65"/>
</g>
<!-- sale&#45;pareja&#45;&gt;atendidos -->
<g id="edge9" class="edge">
<title>sale&#45;pareja&#45;&gt;atendidos</title>
<path fill="none" stroke="black" d="M621.3,-236.45C630.58,-233.37 640.76,-229.99 650.85,-226.64"/>
<polygon fill="black" stroke="black" points="652.08,-229.92 660.47,-223.44 649.88,-223.27 652.08,-229.92"/>
</g>
<!-- sale&#45;grupo&#45;&gt;mesas&#45;libres -->
<g id="edge11" class="edge">
<title>sale&#45;grupo&#45;&gt;mesas&#45;libres</title>
<path fill="none" stroke="black" d="M567.49,-146.99C553.97,-131.2 531.91,-109.34 507,-100 460.39,-82.53 444.62,-96.05 395,-100 288.66,-108.47 258.83,-103.17 158,-138 142.54,-143.34 126.68,-150.96 112.24,-158.87"/>
<polygon fill="black" stroke="black" points="110.45,-155.86 103.45,-163.81 113.88,-161.96 110.45,-155.86"/>
<text text-anchor="middle" x="372" y="-106.8" font-family="Helvetica,sans-Serif" font-size="14.00">2</text>
</g>
<!-- sale&#45;grupo&#45;&gt;atendidos -->
<g id="edge12" class="edge">
<title>sale&#45;grupo&#45;&gt;atendidos</title>
<path fill="none" stroke="black" d="M619.57,-176.42C629.2,-179.47 639.89,-182.85 650.49,-186.21"/>
<polygon fill="black" stroke="black" points="649.59,-189.59 660.18,-189.28 651.7,-182.92 649.59,-189.59"/>
</g>
</g>
</svg>
